<svg width="30" height="37" viewBox="0 0 30 37" fill="none" xmlns="http://www.w3.org/2000/svg">
<path d="M14.65 36.6C11.85 36.6 9.16667 36.2333 6.6 35.5C4.03333 34.7333 1.96667 33.75 0.4 32.55L3.15 26.45C4.65 27.5167 6.41667 28.4 8.45 29.1C10.5167 29.7667 12.6 30.1 14.7 30.1C16.3 30.1 17.5833 29.95 18.55 29.65C19.55 29.3167 20.2833 28.8667 20.75 28.3C21.2167 27.7333 21.45 27.0833 21.45 26.35C21.45 25.4167 21.0833 24.6833 20.35 24.15C19.6167 23.5833 18.65 23.1333 17.45 22.8C16.25 22.4333 14.9167 22.1 13.45 21.8C12.0167 21.4667 10.5667 21.0667 9.1 20.6C7.66667 20.1333 6.35 19.5333 5.15 18.8C3.95 18.0667 2.96667 17.1 2.2 15.9C1.46667 14.7 1.1 13.1667 1.1 11.3C1.1 9.3 1.63333 7.48333 2.7 5.85C3.8 4.18333 5.43333 2.86666 7.6 1.9C9.8 0.899999 12.55 0.399999 15.85 0.399999C18.05 0.399999 20.2167 0.666666 22.35 1.2C24.4833 1.7 26.3667 2.46666 28 3.5L25.5 9.65C23.8667 8.71667 22.2333 8.03333 20.6 7.6C18.9667 7.13333 17.3667 6.9 15.8 6.9C14.2333 6.9 12.95 7.08333 11.95 7.45C10.95 7.81667 10.2333 8.3 9.8 8.9C9.36667 9.46666 9.15 10.1333 9.15 10.9C9.15 11.8 9.51667 12.5333 10.25 13.1C10.9833 13.6333 11.95 14.0667 13.15 14.4C14.35 14.7333 15.6667 15.0667 17.1 15.4C18.5667 15.7333 20.0167 16.1167 21.45 16.55C22.9167 16.9833 24.25 17.5667 25.45 18.3C26.65 19.0333 27.6167 20 28.35 21.2C29.1167 22.4 29.5 23.9167 29.5 25.75C29.5 27.7167 28.95 29.5167 27.85 31.15C26.75 32.7833 25.1 34.1 22.9 35.1C20.7333 36.1 17.9833 36.6 14.65 36.6Z" fill="white"/>
</svg>
