<svg width="130" height="37" viewBox="0 0 130 37" fill="none" xmlns="http://www.w3.org/2000/svg">
<path d="M14.65 36.6C11.85 36.6 9.16667 36.2333 6.6 35.5C4.03333 34.7333 1.96667 33.75 0.4 32.55L3.15 26.45C4.65 27.5167 6.41667 28.4 8.45 29.1C10.5167 29.7667 12.6 30.1 14.7 30.1C16.3 30.1 17.5833 29.95 18.55 29.65C19.55 29.3167 20.2833 28.8667 20.75 28.3C21.2167 27.7333 21.45 27.0833 21.45 26.35C21.45 25.4167 21.0833 24.6833 20.35 24.15C19.6167 23.5833 18.65 23.1333 17.45 22.8C16.25 22.4333 14.9167 22.1 13.45 21.8C12.0167 21.4667 10.5667 21.0667 9.1 20.6C7.66667 20.1333 6.35 19.5333 5.15 18.8C3.95 18.0667 2.96667 17.1 2.2 15.9C1.46667 14.7 1.1 13.1667 1.1 11.3C1.1 9.3 1.63333 7.48333 2.7 5.85C3.8 4.18333 5.43333 2.86666 7.6 1.9C9.8 0.899999 12.55 0.399999 15.85 0.399999C18.05 0.399999 20.2167 0.666666 22.35 1.2C24.4833 1.7 26.3667 2.46666 28 3.5L25.5 9.65C23.8667 8.71667 22.2333 8.03333 20.6 7.6C18.9667 7.13333 17.3667 6.9 15.8 6.9C14.2333 6.9 12.95 7.08333 11.95 7.45C10.95 7.81667 10.2333 8.3 9.8 8.9C9.36667 9.46666 9.15 10.1333 9.15 10.9C9.15 11.8 9.51667 12.5333 10.25 13.1C10.9833 13.6333 11.95 14.0667 13.15 14.4C14.35 14.7333 15.6667 15.0667 17.1 15.4C18.5667 15.7333 20.0167 16.1167 21.45 16.55C22.9167 16.9833 24.25 17.5667 25.45 18.3C26.65 19.0333 27.6167 20 28.35 21.2C29.1167 22.4 29.5 23.9167 29.5 25.75C29.5 27.7167 28.95 29.5167 27.85 31.15C26.75 32.7833 25.1 34.1 22.9 35.1C20.7333 36.1 17.9833 36.6 14.65 36.6ZM45.8348 36.4C43.6014 36.4 41.6014 35.9667 39.8348 35.1C38.1014 34.2333 36.7514 32.9167 35.7848 31.15C34.8181 29.35 34.3348 27.0667 34.3348 24.3V9.1H42.1348V23.15C42.1348 25.3833 42.6014 27.0333 43.5348 28.1C44.5014 29.1333 45.8514 29.65 47.5848 29.65C48.7848 29.65 49.8514 29.4 50.7848 28.9C51.7181 28.3667 52.4514 27.5667 52.9848 26.5C53.5181 25.4 53.7848 24.0333 53.7848 22.4V9.1H61.5848V36H54.1848V28.6L55.5348 30.75C54.6348 32.6167 53.3014 34.0333 51.5348 35C49.8014 35.9333 47.9014 36.4 45.8348 36.4ZM103.261 8.7C105.394 8.7 107.278 9.13333 108.911 10C110.578 10.8333 111.878 12.1333 112.811 13.9C113.778 15.6333 114.261 17.8667 114.261 20.6V36H106.461V21.8C106.461 19.6333 106.011 18.0333 105.111 17C104.211 15.9667 102.944 15.45 101.311 15.45C100.178 15.45 99.1609 15.7167 98.2609 16.25C97.3609 16.75 96.6609 17.5167 96.1609 18.55C95.6609 19.5833 95.4109 20.9 95.4109 22.5V36H87.6109V21.8C87.6109 19.6333 87.1609 18.0333 86.2609 17C85.3943 15.9667 84.1443 15.45 82.5109 15.45C81.3776 15.45 80.3609 15.7167 79.4609 16.25C78.5609 16.75 77.8609 17.5167 77.3609 18.55C76.8609 19.5833 76.6109 20.9 76.6109 22.5V36H68.8109V9.1H76.2609V16.45L74.8609 14.3C75.7943 12.4667 77.1109 11.0833 78.8109 10.15C80.5443 9.18333 82.5109 8.7 84.7109 8.7C87.1776 8.7 89.3276 9.33333 91.1609 10.6C93.0276 11.8333 94.2609 13.7333 94.8609 16.3L92.1109 15.55C93.0109 13.45 94.4443 11.7833 96.4109 10.55C98.4109 9.31667 100.694 8.7 103.261 8.7ZM124.202 36.4C122.869 36.4 121.719 35.95 120.752 35.05C119.819 34.1167 119.352 32.9333 119.352 31.5C119.352 30.0667 119.819 28.9167 120.752 28.05C121.719 27.15 122.869 26.7 124.202 26.7C125.569 26.7 126.719 27.15 127.652 28.05C128.586 28.9167 129.052 30.0667 129.052 31.5C129.052 32.9333 128.586 34.1167 127.652 35.05C126.719 35.95 125.569 36.4 124.202 36.4Z" fill="white"/>
</svg>
